<?xml version="1.0" standalone="no"?>
<!DOCTYPE svg PUBLIC "-//W3C//DTD SVG 20010904//EN"
 "http://www.w3.org/TR/2001/REC-SVG-20010904/DTD/svg10.dtd">
<svg version="1.0" xmlns="http://www.w3.org/2000/svg"
 width="619.000000pt" height="619.000000pt" viewBox="0 0 619.000000 619.000000"
 preserveAspectRatio="xMidYMid meet">
<metadata>
Created by potrace 1.11, written by Peter Selinger 2001-2013
</metadata>
<g transform="translate(0.000000,619.000000) scale(0.100000,-0.100000)"
fill="#000000" stroke="none">
<path d="M2948 6175 c-2 -2 -37 -6 -78 -9 -121 -11 -134 -12 -270 -36 -56 -10
-82 -16 -122 -26 -13 -3 -34 -7 -48 -10 -76 -15 -356 -108 -375 -125 -5 -5
-15 -9 -22 -9 -46 0 -529 -269 -541 -301 -2 -5 -8 -9 -13 -9 -6 0 -15 -4 -22
-10 -7 -5 -59 -46 -116 -89 -153 -118 -301 -255 -431 -401 -30 -34 -62 -70
-72 -80 -23 -26 -158 -198 -188 -240 -209 -296 -373 -610 -485 -930 -20 -58
-38 -112 -40 -120 -2 -8 -15 -57 -29 -109 -14 -51 -25 -96 -24 -100 0 -3 -1
-8 -2 -11 -4 -11 -19 -84 -26 -130 -3 -19 -9 -62 -15 -95 -33 -208 -30 -583 6
-760 3 -16 10 -52 15 -80 18 -95 21 -107 59 -223 65 -197 174 -401 291 -544
43 -52 206 -216 247 -250 115 -91 282 -186 447 -253 106 -43 101 -38 111 -125
13 -112 75 -309 138 -434 104 -211 248 -337 512 -451 71 -31 248 -83 355 -104
30 -6 66 -14 80 -16 14 -3 41 -8 60 -11 45 -7 80 -13 105 -18 11 -2 49 -6 85
-10 36 -4 88 -9 115 -12 114 -11 221 -15 425 -15 118 0 224 0 235 0 32 0 36 0
110 5 70 5 146 13 220 22 22 3 56 7 75 10 62 7 113 16 210 36 126 26 119 24
170 39 52 15 45 13 90 23 144 34 372 156 480 258 160 149 283 425 316 703 3
28 9 53 12 56 4 4 39 19 77 34 316 123 561 309 763 576 23 31 42 61 42 67 0 5
4 12 9 14 10 4 92 148 125 220 47 104 112 309 121 378 2 14 4 26 5 28 4 3 6
13 13 67 27 179 31 236 30 410 0 140 -3 198 -17 330 -6 56 -36 220 -45 254 -6
18 -10 36 -9 40 0 3 -1 9 -2 14 -3 10 -6 18 -14 52 -4 17 -22 75 -39 130 -17
55 -31 105 -33 110 -2 9 -46 126 -64 170 -25 60 -68 152 -114 245 -53 106 -65
127 -127 233 -64 110 -74 126 -90 145 -8 10 -18 24 -21 32 -6 17 -202 278
-243 325 -128 147 -240 262 -344 354 -35 31 -71 63 -80 71 -58 53 -381 283
-401 285 -3 0 -23 12 -45 25 -23 14 -50 30 -60 37 -43 26 -181 93 -192 93 -6
0 -13 4 -15 8 -9 23 -391 154 -513 176 -11 2 -51 11 -90 19 -70 15 -125 24
-200 32 -22 3 -65 8 -95 11 -54 7 -377 14 -382 9z"/>
</g>
</svg>
